<?xml version="1.0" encoding="iso-8859-1"?>
<!-- Generator: Adobe Illustrator 18.0.0, SVG Export Plug-In . SVG Version: 6.00 Build 0)  -->
<!DOCTYPE svg PUBLIC "-//W3C//DTD SVG 1.1//EN" "http://www.w3.org/Graphics/SVG/1.1/DTD/svg11.dtd">
<svg version="1.1" id="Capa_1" xmlns="http://www.w3.org/2000/svg" xmlns:xlink="http://www.w3.org/1999/xlink" x="0px" y="0px"
	 viewBox="0 0 297 297" style="enable-background:new 0 0 297 297;" xml:space="preserve">
<g>
	<path d="M19.652,144.758V71.279c0-30.711,24.986-55.696,55.697-55.696h93.397c30.711,0,55.696,24.985,55.696,55.696v68.263
		c1.628,1.323,6.138,7.887,7.659,9.262l7.659-9.262V71.279c0-39.158-31.857-71.015-71.014-71.015H75.35
		c-39.158,0-71.016,31.857-71.016,71.015v88.546C8.743,154.503,13.863,149.462,19.652,144.758z"/>
	<path d="M202.928,216.339v42.485c0,20.904,17.008,37.912,37.912,37.912h18.248c20.904,0,37.912-17.008,37.912-37.912v-42.485
		H202.928z"/>
	<path d="M195.269,201.021h47.844c-4.19-23.05-21.687-43.247-46.95-56.736c-13.765,12.875-44.072,19.534-74.115,19.534
		c-30.041,0-60.345-6.658-74.112-19.531C18.82,159.833,0,184.283,0,211.747c0,46.863,54.751,84.989,122.048,84.989
		c26.231,0,50.539-5.808,70.458-15.652c-3.134-6.778-4.896-14.315-4.896-22.26V208.68
		C187.61,204.45,191.039,201.021,195.269,201.021z"/>
	<path d="M283.016,201.021c1.725-9.961,2.197-21.177,2.341-33.029c0.053-4.397,0.104-8.549,0.3-12.241
		c0.681-12.774,4.344-22.228,8.526-28.992h-16.531l-37.86,33.103c10.313,12.46,16.729,26.442,18.835,41.159H283.016z"/>
	<path d="M122.048,74.381c-4.23,0-7.659,3.429-7.659,7.659v26.335c-38.118,1.457-58.8,13.572-58.8,19.989
		c0,6.834,23.458,20.135,66.459,20.135s66.459-13.301,66.459-20.135c0-6.417-20.682-18.532-58.8-19.989V82.04
		C129.707,77.81,126.278,74.381,122.048,74.381z"/>
</g>
<g>
</g>
<g>
</g>
<g>
</g>
<g>
</g>
<g>
</g>
<g>
</g>
<g>
</g>
<g>
</g>
<g>
</g>
<g>
</g>
<g>
</g>
<g>
</g>
<g>
</g>
<g>
</g>
<g>
</g>
</svg>
